<svg width="44" height="50" viewBox="0 0 44 50" fill="none" xmlns="http://www.w3.org/2000/svg">
<path d="M2.83076 24.6706C2.83076 22.2135 2.8491 19.7564 2.82159 17.2993C2.82159 16.7125 3.05997 16.3366 3.54589 16.1166C4.47189 15.6949 5.36122 15.2273 6.26888 14.7597C7.25906 14.2463 8.26757 13.7879 9.26692 13.3019C10.7247 12.5868 12.1733 11.8625 13.6219 11.1382C14.8504 10.5239 16.079 9.90049 17.2984 9.27704C17.7293 9.057 18.1419 8.83696 18.5728 8.61692C18.8111 8.49774 19.0954 8.4794 19.2971 8.59859C20.0214 9.04783 20.8007 9.38706 21.5708 9.76296C22.8635 10.3956 24.1379 11.0465 25.4307 11.67C26.1916 12.0367 26.9434 12.4401 27.7044 12.816C28.7038 13.3111 29.7031 13.8154 30.7116 14.3104C31.4634 14.6772 32.2152 15.0439 32.9487 15.4473C33.4804 15.7315 34.0305 15.9791 34.5623 16.2541C34.929 16.4467 35.1124 16.7676 35.1124 17.1893C35.1124 22.1769 35.1124 27.1553 35.1124 32.1428C35.1124 32.7479 34.8649 33.0138 34.3148 33.2614C33.5996 33.5731 32.9028 33.949 32.1969 34.2974C31.4176 34.6824 30.6383 35.0767 29.859 35.4618C29.1713 35.8102 28.4837 36.1494 27.7961 36.4978C27.0168 36.892 26.2375 37.2771 25.4582 37.6713C24.743 38.0289 24.0371 38.3956 23.322 38.7624C22.5793 39.1383 21.8367 39.505 21.0941 39.8717C20.654 40.0918 20.2047 40.3026 19.7738 40.541C19.2604 40.8252 18.7745 40.8619 18.2427 40.5868C17.17 40.0276 16.0698 39.4958 14.988 38.9641C14.2728 38.6157 13.5669 38.2398 12.8517 37.8914C11.8065 37.3688 10.7614 36.837 9.707 36.3327C9.04688 36.0119 8.38676 35.6726 7.72664 35.3426C6.84649 34.9025 5.96633 34.4532 5.08617 34.0132C4.54524 33.7381 3.99514 33.4722 3.45421 33.2155C2.98662 32.9863 2.83076 32.6104 2.83076 32.1061C2.83993 29.6399 2.83076 27.1644 2.83076 24.6981V24.6706ZM19.783 31.8403C19.783 32.207 19.783 32.5737 19.783 32.9405C19.783 34.6641 19.783 36.3786 19.783 38.1022C19.783 38.2306 19.6638 38.6065 20.0214 38.4048C20.3698 38.2123 20.7365 38.0747 21.0849 37.8822C21.7908 37.4971 22.506 37.1487 23.2211 36.7912C23.9729 36.4153 24.743 36.0485 25.4948 35.6726C26.2008 35.3242 26.8884 34.9483 27.5944 34.5999C28.337 34.2332 29.0888 33.8848 29.8315 33.5181C30.8491 33.0046 31.8393 32.4454 32.8662 31.9778C33.2146 31.8219 33.3154 31.6661 33.3154 31.3085C33.3062 27.412 33.3154 23.5154 33.3154 19.6189C33.3154 19.3439 33.3154 19.0596 33.3154 18.7846C33.3154 18.6104 33.2696 18.5279 33.0862 18.6196C32.6278 18.8396 32.1602 19.0413 31.711 19.2705C30.9408 19.6556 30.189 20.059 29.4281 20.4441C28.7038 20.8108 27.9703 21.1683 27.246 21.5259C26.5034 21.9018 25.7699 22.2777 25.0273 22.6536C24.2938 23.0203 23.5512 23.3871 22.8085 23.7538C22.0384 24.1297 21.2774 24.524 20.4981 24.8723C19.9205 25.1291 19.783 25.2666 19.783 25.8809C19.783 27.8704 19.783 29.8507 19.783 31.8403ZM17.9768 38.4506C18.0043 38.3956 18.0227 38.3681 18.0227 38.3498C18.0227 34.059 18.0227 29.7682 18.0227 25.4683C18.0227 25.2758 17.9493 25.1932 17.7843 25.1016C16.8033 24.579 15.7856 24.1481 14.8229 23.5888C14.5662 23.4329 14.4745 23.5888 14.4745 23.8638C14.4837 25.0374 14.4745 26.2201 14.4745 27.3936C14.4745 27.9712 13.8236 28.4297 13.301 28.2004C12.6684 27.9162 12.0541 27.577 11.4306 27.2744C10.7063 26.9169 9.96371 26.5868 9.24859 26.1926C8.36843 25.7158 8.11171 25.7892 8.13005 24.524C8.13922 23.2496 8.11171 21.966 8.14839 20.6916C8.15755 20.3157 7.97419 20.1323 7.69914 20.0498C7.25906 19.9031 6.88316 19.6372 6.46142 19.4539C5.84714 19.1788 5.2787 18.8121 4.60942 18.5829C4.60942 18.7571 4.59108 18.9038 4.59108 19.0505C4.59108 23.1395 4.59108 27.2286 4.59108 31.3085C4.59108 31.6661 4.62775 31.8769 5.04033 32.0053C5.38872 32.1061 5.70961 32.3354 6.04884 32.5004C7.1032 33.023 8.13005 33.5822 9.18441 34.114C10.468 34.7558 11.7607 35.3517 13.0443 35.9935C14.392 36.6628 15.7306 37.3596 17.0783 38.0472C17.3717 38.1939 17.6651 38.3314 17.9677 38.469L17.9768 38.4506ZM5.70045 17.0701C6.67229 17.556 7.60746 17.9778 8.50595 18.5004C8.94603 18.7571 9.24859 18.6746 9.63365 18.4545C10.3213 18.0695 11.0181 17.7302 11.724 17.3818C12.4758 17.0059 13.246 16.6575 13.9978 16.2816C14.6946 15.9332 15.3822 15.5482 16.079 15.1998C16.8491 14.8147 17.6284 14.4571 18.3986 14.0812C19.1687 13.7053 19.948 13.3478 20.6906 12.926C21.1766 12.651 21.7358 12.4951 22.2218 12.0642C21.1307 11.5233 20.0947 11.0007 19.0587 10.4781C18.9487 10.4231 18.8661 10.4781 18.7745 10.5239C17.5826 11.1199 16.3907 11.7066 15.208 12.3026C13.9428 12.9352 12.6775 13.5861 11.4123 14.2188C10.413 14.7139 9.40445 15.1723 8.41427 15.6674C7.53411 16.1074 6.67229 16.5659 5.71878 17.0609L5.70045 17.0701ZM18.967 23.6346C19.2421 23.5613 19.5079 23.4513 19.7555 23.2954C20.1222 23.0662 20.5348 22.9012 20.9107 22.6903C21.6625 22.2777 22.451 21.9477 23.2119 21.5626C23.9087 21.2142 24.5963 20.8291 25.3023 20.4807C26.3658 19.949 27.4385 19.4447 28.5112 18.9221C29.2814 18.5462 30.0423 18.1703 30.8125 17.7852C31.2159 17.5835 31.6101 17.3727 32.0135 17.1618C32.1327 17.0976 32.2152 17.0151 32.0135 16.9326C31.1517 16.575 30.3449 16.0983 29.5014 15.704C29.2539 15.5848 29.0246 15.3373 28.6671 15.484C27.9336 15.8049 27.2185 16.19 26.5034 16.5383C25.3206 17.116 24.1379 17.7211 22.9552 18.3078C21.7725 18.8946 20.5806 19.4722 19.4162 20.0865C18.3619 20.6366 17.2525 21.1042 16.2348 21.7276C16.0606 21.8376 15.7214 21.7826 15.7123 22.0302C15.7123 22.2777 16.0423 22.186 16.2073 22.2961C16.9316 22.7728 17.766 23.0387 18.4902 23.5063C18.6186 23.5888 18.7928 23.5888 18.9578 23.6255L18.967 23.6346ZM11.0272 19.7289C11.8157 20.1323 12.5583 20.5266 13.3285 20.8933C13.576 21.0125 13.8603 20.9758 14.1078 20.8016C14.5295 20.4899 15.0246 20.2882 15.483 20.0773C16.5741 19.5639 17.6468 19.0046 18.7286 18.4729C19.4254 18.1336 20.113 17.7577 20.8098 17.4185C21.8275 16.9234 22.8269 16.3917 23.8537 15.9149C24.3855 15.6674 24.9172 15.4106 25.4398 15.1356C25.9074 14.8881 26.4392 14.7322 26.8151 14.3746C26.2466 14.0812 25.6965 13.8062 25.1464 13.522C24.6972 13.2928 24.2846 12.9994 23.7254 13.3753C23.1844 13.7328 22.5701 13.9804 21.9834 14.2646C21.2682 14.613 20.544 14.9614 19.8288 15.3098C19.0312 15.704 18.2427 16.0983 17.4542 16.4925C16.7758 16.8317 16.0973 17.171 15.428 17.5102C14.6396 17.9044 13.8419 18.2987 13.0534 18.7021C12.3933 19.0321 11.7424 19.3714 11.0456 19.7289H11.0272ZM12.7234 25.8625C12.7234 25.1016 12.6867 24.3956 12.7325 23.6896C12.7876 22.9378 12.7509 22.2961 11.8249 22.131C11.6782 22.1035 11.5498 21.9568 11.4031 21.9018C10.8989 21.7184 10.4863 21.3242 9.91787 21.26C9.91787 22.021 9.96371 22.7636 9.9087 23.4971C9.84453 24.2489 10.0004 24.7898 10.8255 24.9457C10.8897 24.9549 10.9447 25.0282 11.0089 25.0649C11.5682 25.3124 12.0724 25.6608 12.7325 25.8625H12.7234Z" fill="#1E1E1E"/>
<path d="M3.24329 8.10353C4.00426 8.10353 4.76523 8.10353 5.5262 8.10353C5.94795 8.10353 6.38803 8.40609 6.50721 8.77282C6.65391 9.2129 6.38803 9.48795 6.11298 9.77217C6.01212 9.88219 5.9021 9.86385 5.79208 9.86385C4.11428 9.86385 2.43648 9.86385 0.758678 9.86385C0.410282 9.86385 0.00687624 9.45127 0.00687624 9.04787C-0.00229208 7.46175 -0.00229208 5.87563 0.00687624 4.28034C0.00687624 3.78526 0.456122 3.39102 0.932875 3.41852C1.32711 3.44603 1.76719 3.66607 1.76719 4.32619C1.76719 4.9863 1.76719 5.64642 1.76719 6.31571C1.76719 6.4624 1.66634 6.68244 1.84054 6.75579C2.03307 6.83831 2.06975 6.58159 2.17977 6.48991C2.80321 5.99482 3.38082 5.44472 4.01343 4.96797C4.54519 4.57373 5.08612 4.17949 5.64539 3.8311C6.51638 3.281 7.39654 2.76757 8.35004 2.355C8.84513 2.14413 9.33105 1.89658 9.82614 1.70405C11.128 1.19979 12.4574 0.787215 13.8327 0.512166C16.0148 0.0629181 18.206 -0.0837752 20.4247 0.0445813C21.8641 0.127096 23.2669 0.356305 24.6788 0.631355C25.3206 0.759711 25.944 0.970583 26.5583 1.18145C27.6218 1.52985 28.6762 1.93326 29.6756 2.42834C30.3723 2.77674 31.06 3.15264 31.7384 3.56522C32.7103 4.16116 33.6271 4.82128 34.5256 5.51807C35.0849 5.94898 35.5983 6.45324 36.1025 6.94833C36.6526 7.48926 37.2027 8.03019 37.6978 8.61696C38.2296 9.25874 38.7522 9.90969 39.2106 10.6157C39.504 11.0741 39.8065 11.5325 40.0999 12.0001C40.8701 13.2195 41.466 14.5122 41.9886 15.8508C42.6854 17.6111 43.0888 19.4356 43.4005 21.2876C43.7122 23.1304 43.5656 24.9824 43.5564 26.8252C43.5564 27.5862 43.318 28.3563 43.2172 29.1173C43.043 30.4559 42.6487 31.7395 42.2086 32.9955C41.7869 34.1966 41.2643 35.3609 40.6317 36.4886C40.0724 37.488 39.4765 38.4598 38.798 39.3767C37.7987 40.7336 36.6618 41.9621 35.4058 43.099C34.6173 43.8141 33.7921 44.5018 32.912 45.0885C31.8484 45.7945 30.7391 46.4454 29.5747 46.9864C28.6854 47.3989 27.796 47.784 26.8792 48.0866C25.3573 48.5908 23.8078 48.9942 22.1942 49.1684C20.8373 49.3151 19.4804 49.4802 18.1143 49.3976C16.5557 49.2968 14.9971 49.1593 13.466 48.7925C12.3016 48.5175 11.1647 48.1691 10.0462 47.7657C9.18436 47.4631 8.35921 47.0597 7.54323 46.638C5.98462 45.8312 4.53602 44.8501 3.17911 43.75C2.59234 43.2732 2.06058 42.7231 1.51048 42.2005C1.15292 41.8613 1.11624 41.2653 1.40963 40.9536C1.74886 40.5869 2.35397 40.5869 2.7482 40.9536C3.27997 41.4487 3.79339 41.9713 4.35266 42.4389C4.76523 42.7873 5.22365 43.0807 5.66373 43.4016C6.50721 44.0158 7.39654 44.5659 8.32254 45.0427C9.08351 45.4278 9.83531 45.8312 10.6696 46.0787C11.128 46.2162 11.5681 46.4088 12.0265 46.5646C13.0259 46.913 14.0527 47.1697 15.0796 47.3164C16.7849 47.5548 18.5085 47.7565 20.2505 47.5915C21.7358 47.454 23.2211 47.2798 24.6696 46.9222C25.3573 46.7572 26.0449 46.528 26.705 46.2712C27.6127 45.9228 28.5112 45.5653 29.373 45.1435C30.0239 44.8318 30.6291 44.4192 31.2342 44.025C31.7843 43.6766 32.3344 43.3374 32.8478 42.934C33.4804 42.4389 34.0763 41.8979 34.6723 41.3662C35.4883 40.6511 36.1851 39.8259 36.8635 38.9824C37.5786 38.0839 38.2204 37.1304 38.798 36.1311C39.2106 35.4068 39.5957 34.6733 39.9257 33.9123C40.3566 32.9313 40.705 31.9137 40.9984 30.8776C41.356 29.6216 41.6219 28.3472 41.7319 27.0636C41.9244 24.854 41.9061 22.6445 41.4568 20.4533C41.2001 19.2064 40.8701 17.987 40.4667 16.7951C40.1824 15.9608 39.7974 15.154 39.4031 14.3563C39.0547 13.6595 38.6697 12.9719 38.2571 12.3118C37.9179 11.7709 37.4961 11.2849 37.1294 10.7623C36.7352 10.2031 36.2767 9.70799 35.8275 9.20373C34.6631 7.911 33.3429 6.80163 31.9126 5.80229C30.8124 5.04132 29.648 4.3812 28.4378 3.81276C27.1634 3.21682 25.8249 2.74007 24.4496 2.41918C21.9742 1.84157 19.4529 1.62153 16.8949 1.85991C15.2996 2.0066 13.7502 2.31833 12.2191 2.76757C10.5871 3.24433 9.04684 3.92278 7.57991 4.74793C6.56222 5.31636 5.59038 5.96732 4.68272 6.72829C4.16929 7.1592 3.66503 7.59011 3.16078 8.01185C3.17911 8.04852 3.18828 8.0852 3.20662 8.12187L3.24329 8.10353Z" fill="#1E1E1E"/>
</svg>
