<svg width="68" height="42" viewBox="0 0 68 42" fill="none" xmlns="http://www.w3.org/2000/svg">
<path d="M29.576 2.74716C24.0032 2.74716 18.4217 2.74716 12.8489 2.73838C12.375 2.73838 12.2434 2.84369 12.2346 3.33515C12.2171 4.26541 12.1293 5.19566 11.9977 6.11714C11.9362 6.52961 12.0503 6.59104 12.4014 6.59104C14.0688 6.59104 15.7275 6.58227 17.3949 6.59104C18.0882 6.59104 18.448 7.10005 18.3251 7.75825C18.2725 8.04786 18.1145 8.20582 17.8512 8.29358C17.5178 8.40767 17.1843 8.45155 16.8245 8.45155C12.0503 8.45155 7.28496 8.45155 2.51082 8.45155C2.21244 8.45155 1.92282 8.434 1.65077 8.33747C1.26462 8.19705 0.939913 7.9952 0.992569 7.5213C1.04522 7.0825 1.21198 6.68758 1.72976 6.6437C2.25632 6.59982 2.78287 6.56472 3.30943 6.56472C5.41567 6.56472 7.51313 6.56471 9.61937 6.59982C10.0231 6.59982 10.1547 6.46818 10.1986 6.08203C10.3302 4.73931 10.4443 3.39658 10.5408 2.04508C10.6023 1.19381 10.7778 1.03584 11.5325 0.965632C12.6822 0.869096 13.8318 0.965632 14.9815 0.956856C24.0295 0.939304 33.0776 0.956856 42.1344 0.94808C43.7755 0.94808 45.4254 0.921753 47.0665 0.921753C47.4702 0.921753 47.8651 0.983183 48.2688 1.00074C48.5848 1.01829 48.6374 1.22891 48.6901 1.47464C48.8744 2.31713 48.6901 3.15085 48.6287 3.9758C48.5146 5.57303 48.3478 7.17026 48.1986 8.76749C48.1635 9.17996 48.4356 9.08342 48.6637 9.07465C50.2698 9.02199 51.8758 8.96056 53.4818 9.10098C56.413 9.35548 58.9843 10.4613 61.1871 12.4007C63.7146 14.6298 65.1451 17.4733 65.54 20.8081C65.7155 22.3352 65.5751 23.871 65.4259 25.398C65.2416 27.3199 65.1275 29.2594 64.8993 31.1726C64.8116 31.9185 64.8818 32.2871 65.7067 32.5592C66.6721 32.8839 67.1635 33.7615 67.1021 34.8146C67.0319 35.938 66.4088 36.7102 65.3996 37.1666C65.031 37.3333 64.6448 37.4035 64.2324 37.4035C63.0827 37.386 61.933 37.4035 60.7746 37.3948C60.4236 37.3948 60.213 37.4913 60.0199 37.7985C58.7298 39.8433 56.9132 41.0895 54.4822 41.3791C51.9723 41.6775 49.436 40.2996 48.3829 38.0003C48.1723 37.5527 47.9529 37.386 47.4527 37.386C40.5986 37.4035 33.7446 37.4035 26.8817 37.386C26.5044 37.386 26.3376 37.5703 26.1621 37.8511C24.9949 39.6765 23.3713 40.835 21.2388 41.3001C18.5182 41.8881 15.5432 40.4049 14.4725 37.8511C14.3145 37.465 14.1215 37.3948 13.7441 37.3948C11.7168 37.4123 9.68958 37.3948 7.65355 37.3948C6.56533 37.3948 5.64385 36.7366 5.31914 35.7361C4.99443 34.7444 5.34547 33.5509 6.17041 32.9278C6.53023 32.6557 6.9076 32.3749 7.3815 32.3398C7.75887 32.3047 7.91684 32.138 7.94316 31.7606C8.05725 30.3389 8.18889 28.9259 8.31175 27.5042C8.36441 26.925 8.3644 26.337 8.44339 25.7578C8.49604 25.3717 8.3644 25.2927 8.01336 25.2927C6.73207 25.3102 5.45078 25.3102 4.17826 25.3102C3.81844 25.3102 3.44985 25.2488 3.09003 25.2312C2.5898 25.1961 2.37041 24.8276 2.34408 24.4239C2.31775 24.0202 2.50204 23.6516 3.01105 23.5638C3.248 23.5287 3.47618 23.476 3.71313 23.476C7.46048 23.476 11.2078 23.476 14.9552 23.476C15.157 23.476 15.3589 23.5024 15.5519 23.5287C16.061 23.5989 16.3418 23.8797 16.3242 24.4063C16.3067 24.9416 16.0434 25.2312 15.473 25.2751C13.9547 25.3892 12.4365 25.2927 10.927 25.3102C10.4531 25.3102 10.3039 25.4155 10.2776 25.9333C10.2074 27.3375 10.0582 28.7329 9.90898 30.1282C9.83877 30.725 9.92653 31.3306 9.78611 31.9273C9.73346 32.1555 9.90898 32.2433 10.1196 32.2433C11.5413 32.2433 12.9718 32.2433 14.3935 32.2433C14.6656 32.2433 14.7621 32.0326 14.8762 31.8483C15.7977 30.3828 17.0175 29.2594 18.6586 28.6627C21.6513 27.5657 25.1792 28.5837 26.636 31.8922C26.7764 32.2169 27.0046 32.2433 27.2942 32.2433C29.8744 32.2433 32.4457 32.2433 35.0259 32.2433C37.9483 32.2433 40.8795 32.2433 43.8019 32.2433C44.1617 32.2433 44.3196 32.1818 44.346 31.7869C44.4601 30.4266 44.618 29.0664 44.7409 27.7061C44.8725 26.2668 44.9954 24.8363 45.1183 23.3971C45.285 21.361 45.4517 19.325 45.6185 17.289C45.7765 15.4548 45.952 13.6206 46.1099 11.7777C46.2767 9.81183 46.4346 7.85479 46.6014 5.88896C46.6716 5.05524 46.7243 4.21275 46.8296 3.37903C46.891 2.86125 46.7506 2.70328 46.1977 2.70328C40.66 2.72083 35.1224 2.71205 29.576 2.71205V2.74716ZM50.9104 10.8737C50.182 10.8737 49.4448 10.8737 48.7164 10.8737C47.9529 10.8737 47.9529 10.8825 47.9002 11.6636C47.83 12.7781 47.7598 13.8839 47.6633 14.9984C47.4614 17.3416 47.2333 19.6848 47.0226 22.028C46.891 23.5024 46.7945 24.9767 46.6628 26.4511C46.5049 28.2326 46.3206 30.0054 46.145 31.7781C46.1275 31.98 46.1012 32.2433 46.382 32.252C47.0402 32.2784 47.6984 32.2696 48.3566 32.252C48.5584 32.252 48.6374 32.0502 48.734 31.8922C50.1644 29.5403 52.218 28.2677 55.0088 28.3116C57.2291 28.3467 59.037 29.277 60.055 31.2252C60.5728 32.2257 61.1783 32.3749 62.091 32.2784C62.1788 32.2696 62.2753 32.2608 62.3631 32.2784C62.8633 32.3398 63.0739 32.1643 63.109 31.6289C63.2933 29.0049 63.4952 26.3897 63.7497 23.7744C64.0129 21.1241 63.5478 18.6493 62.1788 16.3675C60.7132 13.9453 58.6421 12.2954 55.8952 11.488C54.2628 11.0054 52.6042 10.8737 50.9192 10.8913L50.9104 10.8737ZM15.7275 35.2183C15.7275 37.3421 17 39.071 18.878 39.4835C21.6864 40.0978 24.4683 38.3777 25.1617 35.5606C25.8813 32.6294 23.933 30.137 21.1861 30.1195C18.2023 30.1019 15.745 32.3574 15.7362 35.2183H15.7275ZM54.7192 30.137C54.2541 30.1721 53.7275 30.1546 53.2097 30.3476C51.437 31.0146 50.2434 32.2257 49.6993 34.0511C48.848 36.877 50.8665 39.5975 53.7889 39.6063C56.0093 39.6063 57.624 38.5093 58.5806 36.6137C60.2744 33.2613 58.0102 29.9878 54.7192 30.137ZM37.4919 34.1038C34.1834 34.1038 30.8836 34.1038 27.575 34.1038C27.224 34.1038 27.0573 34.1564 27.0748 34.5865C27.1099 35.5781 27.0748 35.5606 28.0402 35.5694C34.2887 35.5869 40.5284 35.6045 46.7769 35.6308C47.7511 35.6308 47.7598 35.6132 47.7949 34.6303C47.8037 34.2354 47.7335 34.095 47.2947 34.1038C44.03 34.1213 40.7566 34.1125 37.4919 34.1125V34.1038ZM10.4882 35.5518C10.4882 35.5518 10.4882 35.6045 10.4882 35.622C11.2868 35.622 12.0942 35.622 12.8928 35.622C13.9021 35.622 13.8845 35.6132 13.981 34.6303C14.0161 34.2266 13.9372 34.0862 13.4984 34.095C11.945 34.1125 10.4004 34.0862 8.84709 34.095C8.39951 34.095 7.93438 34.0599 7.48681 34.2003C6.96903 34.3495 6.9778 34.7883 6.9778 35.1744C6.9778 35.5957 7.35517 35.5518 7.636 35.5518C8.58381 35.5606 9.53162 35.5518 10.4794 35.5518H10.4882ZM63.0388 34.1125C63.0388 34.1125 63.0388 34.1125 63.0388 34.1038C62.6702 34.1038 62.3104 34.1038 61.9418 34.1038C60.9765 34.1213 60.994 34.1301 60.8887 35.0779C60.8448 35.4377 60.9413 35.5869 61.3099 35.5869C61.9857 35.5869 62.6614 35.5957 63.3372 35.6132C63.7584 35.6132 64.1797 35.6483 64.5922 35.543C64.9783 35.4465 65.2943 34.9112 65.2153 34.4548C65.1451 34.0336 64.794 34.1301 64.5132 34.1213C64.0217 34.1038 63.5303 34.1213 63.0301 34.1213L63.0388 34.1125Z" fill="#1E1E1E"/>
<path d="M16.6665 19.7287C14.4198 19.7287 12.1732 19.7287 9.91776 19.7287C9.46141 19.7287 9.00505 19.6848 8.5487 19.641C7.96071 19.5883 7.75009 19.3601 7.75009 18.816C7.75009 18.1929 7.99582 17.9121 8.58381 17.8945C9.31222 17.8682 10.0494 17.8682 10.7778 17.8682C15.3676 17.8682 19.9575 17.8858 24.5473 17.8945C25.03 17.8945 25.46 17.956 25.539 18.5791C25.6268 19.2811 25.4425 19.5444 24.7316 19.6497C24.2753 19.7112 23.8277 19.7375 23.3626 19.7375C21.1335 19.7375 18.9044 19.7375 16.6753 19.7375L16.6665 19.7287Z" fill="#1E1E1E"/>
<path d="M21.0282 14.0418C18.8956 14.0418 16.7543 14.0418 14.6217 14.0418C14.218 14.0418 13.8231 13.9804 13.4282 13.9541C12.884 13.9102 12.7436 13.5592 12.7436 13.1379C12.7436 12.7342 12.884 12.3481 13.4106 12.2866C13.7353 12.2515 14.0513 12.1813 14.3847 12.1813C18.7815 12.1813 23.1871 12.1813 27.5838 12.1813C27.9261 12.1813 28.2771 12.1813 28.6106 12.2779C29.0494 12.4095 29.2951 12.7079 29.2688 13.1642C29.2425 13.5855 29.0319 13.8663 28.5843 13.9541C28.2947 14.0155 28.0051 14.0243 27.7155 14.0243C25.4864 14.0243 23.2573 14.0243 21.0369 14.0243L21.0282 14.0418Z" fill="#1E1E1E"/>
<path d="M22.994 25.3366C21.7302 25.3366 20.4753 25.3541 19.2115 25.3366C18.4568 25.319 18.0619 24.8363 18.1935 24.1781C18.3164 23.5989 18.764 23.5199 19.2379 23.5112C21.0282 23.5024 22.8185 23.5112 24.6088 23.5024C25.3547 23.5024 26.1095 23.4761 26.8554 23.5199C27.7593 23.5638 28.1543 24.1343 27.8383 24.8276C27.7243 25.0821 27.54 25.2049 27.2591 25.2664C26.5132 25.4331 25.7672 25.3102 25.0212 25.3366C24.3455 25.3541 23.6697 25.3366 22.994 25.3366Z" fill="#1E1E1E"/>
<path d="M7.50439 14.0331C6.42494 14.0331 5.59122 14.0594 4.74873 14.0331C3.93256 14.0067 3.63417 13.6996 3.71315 13.0326C3.75703 12.6552 3.94134 12.3832 4.33626 12.2954C4.51178 12.2603 4.69607 12.1989 4.87159 12.1989C6.49515 12.1989 8.12748 12.1813 9.75104 12.2076C10.2337 12.2076 10.7515 12.2515 10.9182 12.8834C11.0411 13.3748 10.7866 13.8488 10.2864 13.9541C9.29469 14.1559 8.28545 13.9804 7.51316 14.0331H7.50439Z" fill="#1E1E1E"/>
<path d="M23.3714 6.59105C24.0998 6.59105 24.837 6.56473 25.5654 6.59105C26.3552 6.62616 26.7765 7.22293 26.5132 7.87235C26.3465 8.2936 25.9603 8.41646 25.5829 8.42524C24.1612 8.45156 22.7308 8.43401 21.309 8.42524C21.1686 8.42524 21.0194 8.37258 20.879 8.33748C20.3963 8.20584 20.098 7.90745 20.1769 7.38967C20.2471 6.89821 20.5894 6.60861 21.0809 6.59105C21.8444 6.56473 22.6167 6.59105 23.3802 6.59105H23.3714Z" fill="#1E1E1E"/>
<path d="M2.93208 17.8945C3.59028 17.8945 4.24849 17.877 4.89791 17.8945C5.51223 17.9121 5.87203 18.2368 5.88959 18.7546C5.90714 19.3338 5.65265 19.5883 4.96812 19.6497C3.58151 19.7726 2.20367 19.7726 0.817065 19.6497C0.28173 19.5971 0.0184563 19.3162 0.000904283 18.816C-0.0166477 18.2631 0.220307 17.9472 0.799523 17.9209C1.51038 17.8858 2.22123 17.9121 2.93208 17.9121V17.8945Z" fill="#1E1E1E"/>
<path d="M57.4134 24.5906C55.2282 24.4853 53.0254 24.7661 50.8139 24.6959C50.3751 24.6784 49.9451 24.6521 49.5063 24.5906C48.9534 24.5204 48.7603 24.1957 48.7603 23.6955C48.7603 22.8354 48.8568 21.9842 48.9358 21.1329C49.1114 19.1144 49.2869 17.0959 49.4448 15.0775C49.4975 14.4807 49.5326 13.8751 49.673 13.2959C49.7608 12.9537 49.9539 12.7694 50.3137 12.7343C54.5086 12.3481 57.94 13.7084 60.3709 17.21C61.6873 19.1056 62.091 21.2996 61.9155 23.5726C61.8541 24.3712 61.6786 24.4765 60.994 24.5204C59.8093 24.5994 58.6158 24.538 57.4047 24.5906H57.4134ZM55.3599 22.8003C55.3599 22.8003 55.3599 22.7564 55.3599 22.7389C56.7991 22.7389 58.2472 22.7389 59.6864 22.7389C60.0638 22.7389 60.2393 22.6599 60.1428 22.2387C60.0638 21.8701 60.0375 21.4839 59.9848 21.1066C59.4582 17.5698 56.1585 14.5246 52.3409 14.6036C52.0338 14.6036 51.6652 14.5158 51.4282 14.6474C51.1386 14.8054 51.3141 15.2179 51.279 15.5163C50.9894 17.8156 50.8227 20.1236 50.6471 22.423C50.6208 22.7389 50.6998 22.8179 51.0333 22.8091C52.4726 22.7828 53.9206 22.8003 55.3599 22.8003Z" fill="#1E1E1E"/>
<path d="M20.2998 37.6229C18.9395 37.6492 17.7635 36.4469 17.746 35.0077C17.7284 33.507 19.1238 32.0765 20.6333 32.0502C22.0199 32.0238 23.2748 33.2086 23.3012 34.5689C23.3363 36.2012 21.976 37.5878 20.2998 37.6229ZM20.2998 35.78C20.9667 35.78 21.467 35.3148 21.4758 34.683C21.4845 34.2003 21.2037 33.9194 20.7035 33.9107C20.0102 33.9019 19.6152 34.3056 19.6065 35.034C19.6065 35.5781 19.7908 35.7799 20.2998 35.7887V35.78Z" fill="#1E1E1E"/>
<path d="M54.0873 37.6317C52.5779 37.5791 51.5335 36.3855 51.5686 35.113C51.6037 33.3052 52.7271 32.1994 54.5349 32.1029C55.9391 32.0326 57.1151 33.2788 57.1151 34.7356C57.1151 36.3241 55.7372 37.6405 54.0961 37.6317H54.0873ZM55.3247 34.7795C55.3423 34.2705 54.9913 33.9107 54.491 33.9107C53.8943 33.9107 53.394 34.3934 53.3853 34.9726C53.3853 35.4289 53.7538 35.8326 54.1839 35.8414C54.7368 35.8414 55.3072 35.3149 55.3247 34.7883V34.7795Z" fill="#1E1E1E"/>
</svg>
